<?xml version="1.0" encoding="UTF-8"?>
<svg id="Layer_2" data-name="Layer 2" xmlns="http://www.w3.org/2000/svg" viewBox="0 0 138.82 58.54">
  <defs>
    <style>
      .cls-1 {
        fill: #3fa9f5;
      }
    </style>
  </defs>
  <g id="Layer_2-2" data-name="Layer 2">
    <g>
      <path d="M0,36.49C5.69,22.74,6.43-.56,25.01.48l10.93,32s-4.12,4.12-9.89,4l-4.18-13.97c-.9-3.03-1.75-6.17-2.54-9.44s-1.54-6.5-2.25-9.73h2.22c-.68,3.22-1.36,6.46-2.05,9.73-.69,3.26-1.47,6.41-2.34,9.44l-3.99,13.97H0ZM8.65,29.58v-7.3h19.81v7.3H8.65Z"/>
      <path d="M42.03,5.51c1.3-3.45,4.93-4.53,8.28-5.03v28.13h14.55c.16,3.54-.79,7.37-4.92,7.65-5.91.5-13.63.11-19.39.23.47-9.2-1.26-23.56,1.48-30.98Z"/>
      <g>
        <path d="M121.32,36.97c-3.27,0-6.23-.71-8.88-2.13s-4.75-3.5-6.29-6.25-2.32-6.11-2.32-10.09.77-7.39,2.32-10.15,3.64-4.84,6.29-6.25,5.61-2.11,8.88-2.11,6.23.7,8.87,2.11,4.74,3.49,6.29,6.25c1.55,2.75,2.33,6.14,2.33,10.15s-.78,7.37-2.33,10.11c-1.55,2.75-3.65,4.82-6.29,6.23s-5.6,2.11-8.87,2.11ZM121.32,28.46c1.63,0,2.99-.38,4.1-1.15s1.94-1.89,2.5-3.37.85-3.29.85-5.44-.28-3.98-.85-5.47-1.4-2.62-2.5-3.38-2.47-1.15-4.1-1.15-2.97.38-4.07,1.15-1.94,1.89-2.51,3.38-.86,3.31-.86,5.47.29,3.95.86,5.44,1.41,2.61,2.51,3.37,2.46,1.15,4.07,1.15Z"/>
        <path d="M84.14,36.97c-3.5,0-6.57-.75-9.22-2.24s-4.72-3.61-6.2-6.37-2.22-6.02-2.22-9.81.79-7.33,2.38-10.09,3.71-4.86,6.37-6.31,5.61-2.16,8.84-2.16c2.13,0,4.1.3,5.93.91s3.45,1.46,4.87,2.57,2.56,2.42,3.42,3.93,1.39,3.16,1.58,4.97h-9.86c-.14-.61-.38-1.16-.71-1.64s-.74-.89-1.23-1.22-1.06-.58-1.69-.75-1.34-.25-2.11-.25c-1.63,0-3.02.39-4.18,1.17s-2.04,1.91-2.65,3.39-.91,3.26-.91,5.34.29,3.91.87,5.41,1.44,2.65,2.57,3.44,2.55,1.2,4.24,1.2c1.48,0,2.72-.22,3.71-.65s1.73-1.05,2.22-1.85.74-1.74.74-2.82l1.69.19h-8.22c-1.19-9.38,10.02-6.53,15.95-6.96v4.98c0,3.29-.69,6.09-2.08,8.42s-3.3,4.11-5.74,5.34-5.23,1.85-8.37,1.85Z"/>
        <path class="cls-1" d="M132.79,49.47c-.24-.39-.58-.58-1-.58-.49,0-.93.24-1.32.73-1.14,1.46-2.14,2.5-3,3.12-.86.62-1.96.93-3.29.93-1.85,0-3.17-.75-3.95-2.24,3.87-.94,6.6-2.22,8.21-3.83s2.41-3.53,2.41-5.77c0-1.92-.57-3.44-1.71-4.56-1.14-1.12-2.65-1.68-4.53-1.68-2.11,0-4,.57-5.68,1.71-1.67,1.14-2.98,2.67-3.92,4.61-.94,1.93-1.41,4.02-1.41,6.26,0,.7.05,1.35.13,1.99-.7.71-1.35,1.31-1.93,1.77-1.07.84-2.31,1.27-3.7,1.27-1.72,0-2.98-.68-3.78-2.05-.8-1.36-1.19-3.74-1.19-7.11,0-.91.03-2.18.1-3.8h5.95c3.67,0,5.51-1.12,5.51-3.36,0-.62-.11-1.04-.34-1.27-.23-.23-.6-.34-1.12-.34h-5.46c4.22-3.74,6.33-8.12,6.33-13.16,0-1.82-.39-3.33-1.17-4.53-.78-1.2-1.85-1.8-3.22-1.8-1.85,0-3.58.88-5.19,2.63s-2.98,4.11-4.12,7.07c-1.14,2.96-1.98,6.22-2.53,9.8h-2.78c-1.46,0-2.19.91-2.19,2.73,0,.78.17,1.35.51,1.71.34.36,1,.54,1.97.54h1.9c-.1,1.46-.15,2.91-.15,4.34,0,1.05.05,2.04.13,2.97-.29.1-.56.29-.81.58-1.49,1.79-2.68,3.08-3.56,3.87-.88.8-1.62,1.19-2.24,1.19-.39,0-.71-.15-.95-.44-.24-.29-.37-.68-.37-1.17,0-1.46.37-4.06,1.12-7.8.49-2.57.73-4.19.73-4.87,0-1.14-.8-1.71-2.39-1.71-.75,0-1.46.07-2.14.19-.16-.71-.37-1.21-.61-1.49-.24-.28-.72-.41-1.44-.41-2.24,0-4.36.71-6.36,2.12-2,1.41-3.6,3.28-4.8,5.6-1.15,2.23-1.75,4.59-1.79,7.07-.65.71-1.21,1.28-1.69,1.7-.89.8-1.66,1.19-2.31,1.19-.94,0-1.41-.65-1.41-1.95,0-.91.31-2.78.93-5.6.71-3.31,1.07-5.6,1.07-6.87,0-2.11-1.06-3.17-3.17-3.17-1.72,0-3.57.91-5.56,2.73-1.98,1.82-3.79,4.73-5.41,8.72.1-.58.28-1.46.54-2.63.62-2.73.93-4.61.93-5.65s-.24-1.87-.71-2.39c-.47-.52-1.28-.78-2.41-.78s-2.35.43-3.63,1.29c-1.28.86-2.53,2.17-3.75,3.92-1.22,1.75-2.27,3.9-3.14,6.43.13-1.43.29-2.62.49-3.58.19-.96.45-2.09.78-3.39.49-1.82.73-2.99.73-3.51,0-.45-.13-.76-.39-.93-.26-.16-.72-.24-1.36-.24-1.2,0-2.14.22-2.8.66-.67.44-1.14,1.13-1.44,2.07-1.2,3.8-1.8,7.81-1.8,12.04,0,2.86.25,4.94.76,6.24s1.37,1.95,2.61,1.95c1.01,0,1.75-.27,2.22-.8.47-.54.89-1.57,1.24-3.09.42-1.75.98-3.54,1.68-5.36.7-1.82,1.42-3.31,2.17-4.48.75-1.17,1.36-1.75,1.85-1.75.36,0,.54.26.54.78,0,.65-.13,2.01-.39,4.09-.33,2.34-.49,4.13-.49,5.36,0,1.46.27,2.7.8,3.73s1.34,1.54,2.41,1.54,1.8-.26,2.27-.78c.47-.52.88-1.56,1.24-3.12.49-1.98,1.12-3.87,1.9-5.65.78-1.79,1.56-3.22,2.34-4.31.78-1.09,1.38-1.63,1.8-1.63.36,0,.54.26.54.78,0,.78-.21,2.19-.63,4.24-.46,2.34-.68,3.96-.68,4.87,0,1.82.42,3.21,1.27,4.17s2.1,1.44,3.75,1.44c2.05,0,3.87-.55,5.48-1.66.67-.46,1.32-.99,1.96-1.56.21.36.43.71.7,1.03,1.2,1.46,2.81,2.19,4.82,2.19,2.57,0,4.69-1.36,6.38-4.09.45,1.27,1.13,2.27,2.02,3,.89.73,1.88,1.1,2.95,1.1,1.4,0,2.84-.57,4.34-1.71,1.49-1.14,2.91-2.53,4.24-4.19.04-.05.07-.11.11-.16,1.49,4.03,4.41,6.05,8.76,6.05,2.14,0,4.04-.55,5.7-1.66.92-.61,1.8-1.33,2.63-2.13.24.35.49.68.78.99,1.72,1.87,4.14,2.8,7.26,2.8,2.05,0,3.81-.39,5.29-1.17,1.48-.78,2.67-1.87,3.58-3.27.55-.84.83-1.85.83-3.02,0-.68-.12-1.22-.37-1.61ZM105.06,27.33c.54-2.16,1.1-3.85,1.71-5.07.6-1.22,1.15-1.83,1.63-1.83.71,0,1.07.96,1.07,2.88,0,1.69-.48,3.57-1.44,5.63-.96,2.06-2.4,3.92-4.31,5.58.36-2.63.8-5.03,1.34-7.19ZM83.5,48.99c-.29,1.4-.76,2.52-1.41,3.36-.65.85-1.33,1.27-2.05,1.27s-1.28-.24-1.68-.73c-.41-.49-.61-1.23-.61-2.24,0-1.82.34-3.54,1.02-5.17s1.6-2.93,2.75-3.92c1.15-.99,2.41-1.5,3.78-1.53l-1.8,8.97ZM119.51,47.53c0-1.98.41-3.67,1.24-5.07.83-1.4,1.84-2.1,3.05-2.1.58,0,1.05.19,1.39.56.34.37.51.87.51,1.49,0,1.2-.55,2.26-1.66,3.17-1.11.91-2.62,1.59-4.53,2.05v-.1Z"/>
      </g>
    </g>
  </g>
</svg>