<svg width="139" height="59" viewBox="0 0 139 59" fill="none" xmlns="http://www.w3.org/2000/svg">
<path d="M0 36.5002C5.69 22.7502 6.43 -0.549791 25.01 0.490209L35.94 32.4902C35.94 32.4902 31.82 36.6102 26.05 36.4902L21.87 22.5202C20.97 19.4902 20.12 16.3502 19.33 13.0802C18.54 9.81021 17.79 6.58021 17.08 3.35021H19.3C18.62 6.57021 17.94 9.81021 17.25 13.0802C16.56 16.3402 15.78 19.4902 14.91 22.5202L10.92 36.4902H0V36.5002ZM8.65 29.5902V22.2902H28.46V29.5902H8.65Z" fill="white"/>
<path d="M42.0302 5.52023C43.3302 2.07023 46.9602 0.990234 50.3102 0.490234V28.6202H64.8602C65.0202 32.1602 64.0702 35.9902 59.9402 36.2702C54.0302 36.7702 46.3102 36.3802 40.5502 36.5002C41.0202 27.3002 39.2902 12.9402 42.0302 5.52023Z" fill="white"/>
<path d="M121.32 36.98C118.05 36.98 115.09 36.27 112.44 34.85C109.79 33.43 107.69 31.35 106.15 28.6C104.61 25.85 103.83 22.49 103.83 18.51C103.83 14.53 104.6 11.12 106.15 8.36C107.7 5.6 109.79 3.52 112.44 2.11C115.09 0.7 118.05 0 121.32 0C124.59 0 127.55 0.7 130.19 2.11C132.83 3.52 134.93 5.6 136.48 8.36C138.03 11.11 138.81 14.5 138.81 18.51C138.81 22.52 138.03 25.88 136.48 28.62C134.93 31.37 132.83 33.44 130.19 34.85C127.55 36.26 124.59 36.96 121.32 36.96V36.98ZM121.32 28.47C122.95 28.47 124.31 28.09 125.42 27.32C126.53 26.55 127.36 25.43 127.92 23.95C128.48 22.47 128.77 20.66 128.77 18.51C128.77 16.36 128.49 14.53 127.92 13.04C127.35 11.55 126.52 10.42 125.42 9.66C124.32 8.9 122.95 8.51 121.32 8.51C119.69 8.51 118.35 8.89 117.25 9.66C116.15 10.43 115.31 11.55 114.74 13.04C114.17 14.53 113.88 16.35 113.88 18.51C113.88 20.67 114.17 22.46 114.74 23.95C115.31 25.44 116.15 26.56 117.25 27.32C118.35 28.08 119.71 28.47 121.32 28.47Z" fill="white"/>
<path d="M84.14 36.98C80.64 36.98 77.57 36.23 74.92 34.74C72.27 33.25 70.2 31.13 68.72 28.37C67.24 25.61 66.5 22.35 66.5 18.56C66.5 14.77 67.29 11.23 68.88 8.47C70.47 5.71 72.59 3.61 75.25 2.16C77.91 0.71 80.86 0 84.09 0C86.22 0 88.19 0.3 90.02 0.91C91.85 1.52 93.47 2.37 94.89 3.48C96.31 4.59 97.45 5.9 98.31 7.41C99.17 8.92 99.7 10.57 99.89 12.38H90.03C89.89 11.77 89.65 11.22 89.32 10.74C88.99 10.26 88.58 9.85 88.09 9.52C87.6 9.19 87.03 8.94 86.4 8.77C85.77 8.6 85.06 8.52 84.29 8.52C82.66 8.52 81.27 8.91 80.11 9.69C78.95 10.47 78.07 11.6 77.46 13.08C76.85 14.56 76.55 16.34 76.55 18.42C76.55 20.5 76.84 22.33 77.42 23.83C78 25.33 78.86 26.48 79.99 27.27C81.12 28.06 82.54 28.47 84.23 28.47C85.71 28.47 86.95 28.25 87.94 27.82C88.93 27.39 89.67 26.77 90.16 25.97C90.65 25.17 90.9 24.23 90.9 23.15L92.59 23.34H84.37C83.18 13.96 94.39 16.81 100.32 16.38V21.36C100.32 24.65 99.63 27.45 98.24 29.78C96.85 32.11 94.94 33.89 92.5 35.12C90.06 36.35 87.27 36.97 84.13 36.97L84.14 36.98Z" fill="white"/>
<path d="M132.79 49.48C132.55 49.09 132.21 48.9 131.79 48.9C131.3 48.9 130.86 49.14 130.47 49.63C129.33 51.09 128.33 52.13 127.47 52.75C126.61 53.37 125.51 53.68 124.18 53.68C122.33 53.68 121.01 52.93 120.23 51.44C124.1 50.5 126.83 49.22 128.44 47.61C130.05 46 130.85 44.08 130.85 41.84C130.85 39.92 130.28 38.4 129.14 37.28C128 36.16 126.49 35.6 124.61 35.6C122.5 35.6 120.61 36.17 118.93 37.31C117.26 38.45 115.95 39.98 115.01 41.92C114.07 43.85 113.6 45.94 113.6 48.18C113.6 48.88 113.65 49.53 113.73 50.17C113.03 50.88 112.38 51.48 111.8 51.94C110.73 52.78 109.49 53.21 108.1 53.21C106.38 53.21 105.12 52.53 104.32 51.16C103.52 49.8 103.13 47.42 103.13 44.05C103.13 43.14 103.16 41.87 103.23 40.25H109.18C112.85 40.25 114.69 39.13 114.69 36.89C114.69 36.27 114.58 35.85 114.35 35.62C114.12 35.39 113.75 35.28 113.23 35.28H107.77C111.99 31.54 114.1 27.16 114.1 22.12C114.1 20.3 113.71 18.79 112.93 17.59C112.15 16.39 111.08 15.79 109.71 15.79C107.86 15.79 106.13 16.67 104.52 18.42C102.91 20.17 101.54 22.53 100.4 25.49C99.2597 28.45 98.4197 31.71 97.8697 35.29H95.0896C93.6296 35.29 92.8997 36.2 92.8997 38.02C92.8997 38.8 93.0697 39.37 93.4097 39.73C93.7497 40.09 94.4096 40.27 95.3796 40.27H97.2796C97.1796 41.73 97.1296 43.18 97.1296 44.61C97.1296 45.66 97.1797 46.65 97.2597 47.58C96.9697 47.68 96.6996 47.87 96.4496 48.16C94.9596 49.95 93.7696 51.24 92.8896 52.03C92.0096 52.83 91.2697 53.22 90.6497 53.22C90.2597 53.22 89.9396 53.07 89.6996 52.78C89.4596 52.49 89.3297 52.1 89.3297 51.61C89.3297 50.15 89.6996 47.55 90.4496 43.81C90.9396 41.24 91.1796 39.62 91.1796 38.94C91.1796 37.8 90.3796 37.23 88.7896 37.23C88.0396 37.23 87.3297 37.3 86.6497 37.42C86.4897 36.71 86.2796 36.21 86.0396 35.93C85.7996 35.65 85.3196 35.52 84.5996 35.52C82.3596 35.52 80.2396 36.23 78.2396 37.64C76.2396 39.05 74.6397 40.92 73.4397 43.24C72.2897 45.47 71.6897 47.83 71.6497 50.31C70.9997 51.02 70.4396 51.59 69.9596 52.01C69.0696 52.81 68.2997 53.2 67.6497 53.2C66.7097 53.2 66.2396 52.55 66.2396 51.25C66.2396 50.34 66.5496 48.47 67.1696 45.65C67.8796 42.34 68.2396 40.05 68.2396 38.78C68.2396 36.67 67.1796 35.61 65.0696 35.61C63.3496 35.61 61.4996 36.52 59.5096 38.34C57.5296 40.16 55.7196 43.07 54.0996 47.06C54.1996 46.48 54.3796 45.6 54.6396 44.43C55.2596 41.7 55.5696 39.82 55.5696 38.78C55.5696 37.74 55.3296 36.91 54.8596 36.39C54.3896 35.87 53.5796 35.61 52.4496 35.61C51.3196 35.61 50.0996 36.04 48.8196 36.9C47.5396 37.76 46.2896 39.07 45.0696 40.82C43.8496 42.57 42.7996 44.72 41.9296 47.25C42.0596 45.82 42.2196 44.63 42.4196 43.67C42.6096 42.71 42.8696 41.58 43.1996 40.28C43.6896 38.46 43.9296 37.29 43.9296 36.77C43.9296 36.32 43.7996 36.01 43.5396 35.84C43.2796 35.68 42.8196 35.6 42.1796 35.6C40.9796 35.6 40.0397 35.82 39.3797 36.26C38.7097 36.7 38.2396 37.39 37.9396 38.33C36.7396 42.13 36.1396 46.14 36.1396 50.37C36.1396 53.23 36.3897 55.31 36.8997 56.61C37.4097 57.91 38.2696 58.56 39.5096 58.56C40.5196 58.56 41.2596 58.29 41.7296 57.76C42.1996 57.22 42.6197 56.19 42.9697 54.67C43.3897 52.92 43.9497 51.13 44.6497 49.31C45.3497 47.49 46.0696 46 46.8196 44.83C47.5696 43.66 48.1796 43.08 48.6696 43.08C49.0296 43.08 49.2096 43.34 49.2096 43.86C49.2096 44.51 49.0796 45.87 48.8196 47.95C48.4896 50.29 48.3297 52.08 48.3297 53.31C48.3297 54.77 48.5997 56.01 49.1297 57.04C49.6597 58.07 50.4696 58.58 51.5396 58.58C52.6097 58.58 53.3397 58.32 53.8097 57.8C54.2797 57.28 54.6896 56.24 55.0496 54.68C55.5396 52.7 56.1696 50.81 56.9496 49.03C57.7296 47.24 58.5096 45.81 59.2896 44.72C60.0696 43.63 60.6696 43.09 61.0896 43.09C61.4496 43.09 61.6297 43.35 61.6297 43.87C61.6297 44.65 61.4196 46.06 60.9996 48.11C60.5396 50.45 60.3196 52.07 60.3196 52.98C60.3196 54.8 60.7396 56.19 61.5896 57.15C62.4396 58.11 63.6896 58.59 65.3396 58.59C67.3896 58.59 69.2096 58.04 70.8196 56.93C71.4896 56.47 72.1396 55.94 72.7796 55.37C72.9896 55.73 73.2097 56.08 73.4797 56.4C74.6797 57.86 76.2897 58.59 78.2997 58.59C80.8697 58.59 82.9896 57.23 84.6796 54.5C85.1296 55.77 85.8096 56.77 86.6996 57.5C87.5896 58.23 88.5797 58.6 89.6497 58.6C91.0497 58.6 92.4896 58.03 93.9896 56.89C95.4796 55.75 96.8997 54.36 98.2297 52.7C98.2697 52.65 98.2996 52.59 98.3396 52.54C99.8296 56.57 102.75 58.59 107.1 58.59C109.24 58.59 111.14 58.04 112.8 56.93C113.72 56.32 114.6 55.6 115.43 54.8C115.67 55.15 115.92 55.48 116.21 55.79C117.93 57.66 120.35 58.59 123.47 58.59C125.52 58.59 127.28 58.2 128.76 57.42C130.24 56.64 131.43 55.55 132.34 54.15C132.89 53.31 133.17 52.3 133.17 51.13C133.17 50.45 133.05 49.91 132.8 49.52L132.79 49.48ZM105.06 27.34C105.6 25.18 106.16 23.49 106.77 22.27C107.37 21.05 107.92 20.44 108.4 20.44C109.11 20.44 109.47 21.4 109.47 23.32C109.47 25.01 108.99 26.89 108.03 28.95C107.07 31.01 105.63 32.87 103.72 34.53C104.08 31.9 104.52 29.5 105.06 27.34ZM83.4996 49C83.2096 50.4 82.7396 51.52 82.0896 52.36C81.4396 53.21 80.7596 53.63 80.0396 53.63C79.3196 53.63 78.7596 53.39 78.3596 52.9C77.9496 52.41 77.7496 51.67 77.7496 50.66C77.7496 48.84 78.0896 47.12 78.7696 45.49C79.4496 43.86 80.3696 42.56 81.5196 41.57C82.6696 40.58 83.9297 40.07 85.2997 40.04L83.4996 49.01V49ZM119.51 47.54C119.51 45.56 119.92 43.87 120.75 42.47C121.58 41.07 122.59 40.37 123.8 40.37C124.38 40.37 124.85 40.56 125.19 40.93C125.53 41.3 125.7 41.8 125.7 42.42C125.7 43.62 125.15 44.68 124.04 45.59C122.93 46.5 121.42 47.18 119.51 47.64V47.54Z" fill="#3FA9F5"/>
</svg>
