<svg width="46" height="45" viewBox="0 0 46 45" fill="none" xmlns="http://www.w3.org/2000/svg">
<path d="M39.8635 35.7702L39.7035 35.6602C35.8835 32.4502 33.2035 27.8802 30.7835 23.2602C31.0735 24.4402 31.0335 25.6902 31.1935 27.1702C31.6635 30.8902 33.4135 34.3202 35.7435 37.2602C37.8735 39.6202 39.9635 43.4802 34.6535 42.6902L34.4635 42.6502C26.2235 40.5602 27.0735 34.6602 25.8535 27.9902C25.7235 27.9002 25.5635 28.2402 25.3535 28.8602C24.8535 30.3302 24.4435 32.3902 23.4735 33.6802C21.8835 35.4402 20.8935 32.6102 20.2435 30.5302C19.8335 29.1702 19.4835 27.9102 19.2735 27.9802C18.8235 28.6402 18.9435 30.1902 18.7635 31.1002C18.3835 35.2702 17.5335 39.6902 13.4335 41.6002C9.10353 43.9102 4.36353 43.0002 8.95353 37.7602C11.9135 34.2302 13.8935 29.9002 14.0635 25.3102C11.9635 28.8702 9.90353 32.7302 6.69353 35.3502C5.07353 36.7902 1.90353 37.8302 2.01353 34.6202C2.49353 30.6002 4.95353 27.1602 6.94353 23.9202C8.57353 21.4002 10.3635 18.9602 12.2135 16.5502C10.5035 11.8502 5.91353 8.52018 4.45353 3.78018C4.16353 1.50018 7.12353 2.31018 8.38353 2.80018C11.8535 4.15018 15.1635 7.12018 17.0935 10.2202C18.2135 8.76018 19.3135 7.30018 20.3635 5.81018C22.3135 3.19018 24.3135 3.78018 25.8835 6.36018C26.6435 7.43018 27.4635 8.45018 28.2735 9.45018C28.3035 9.41018 28.3235 9.37018 28.3535 9.34018C30.4035 6.54018 33.3635 3.91018 36.5535 2.61018C38.5135 1.76018 41.7235 1.33018 40.5435 4.52018C39.2335 7.49018 36.9735 9.96018 35.1935 12.6702C34.4235 13.6002 33.9535 14.9402 33.1935 15.8502C37.1235 21.0302 41.1635 26.0202 43.4935 32.2802C44.7535 35.4502 43.6135 38.3702 39.8635 35.7702Z" fill="white" stroke="white" stroke-width="4" stroke-linecap="round" stroke-linejoin="round"/>
<path d="M32.564 16.8498C31.994 16.8498 31.584 16.3998 31.284 16.0798L31.194 15.9898C30.734 15.3798 30.244 14.8498 29.724 14.2898C28.804 13.2998 27.844 12.2798 27.334 11.0298C27.314 10.9798 27.304 10.9298 27.294 10.8798V10.7398C27.254 10.0798 27.624 9.48977 27.964 9.04977C30.264 5.90977 33.334 3.39977 36.374 2.15977C37.324 1.74977 38.334 1.50977 39.154 1.50977C40.234 1.50977 40.754 1.92977 41.004 2.28977C41.404 2.85977 41.404 3.66977 41.024 4.70977C40.114 6.76977 38.784 8.56977 37.494 10.3198C36.864 11.1798 36.204 12.0698 35.624 12.9598C35.224 13.4398 34.934 13.9798 34.624 14.5498C34.194 15.3398 33.744 16.1598 33.074 16.7198C33.034 16.7598 32.984 16.7898 32.924 16.7998C32.814 16.8398 32.694 16.8598 32.574 16.8598L32.564 16.8498Z" fill="#56A5CA"/>
<path d="M39.1441 2C40.3741 2 41.2541 2.61 40.5441 4.52C39.2341 7.49 36.9741 9.96 35.1941 12.67C34.2741 13.77 33.7841 15.46 32.7441 16.31C32.6841 16.33 32.6241 16.34 32.5641 16.34C32.1741 16.34 31.8141 15.91 31.5541 15.63C30.3641 14.02 28.5441 12.66 27.7841 10.83V10.69C27.7541 10.23 28.0541 9.74 28.3541 9.34C30.4041 6.54 33.3641 3.91 36.5541 2.61C37.3341 2.27 38.3241 2 39.1441 2ZM39.1441 1C37.8941 1 36.6341 1.49 36.1541 1.69C33.0441 2.96 29.8941 5.53 27.5441 8.75C27.1641 9.25 26.7341 9.94 26.7741 10.74L26.7941 10.92C26.7941 11.02 26.8241 11.12 26.8641 11.22C27.4141 12.55 28.4041 13.61 29.3541 14.63C29.8641 15.18 30.3541 15.7 30.7541 16.24C30.7741 16.27 30.8041 16.3 30.8341 16.33L30.9141 16.42C31.2341 16.77 31.7841 17.35 32.5641 17.35C32.7441 17.35 32.9141 17.32 33.0841 17.26C33.1941 17.22 33.2941 17.16 33.3841 17.09C34.1341 16.48 34.6041 15.61 35.0541 14.78C35.3541 14.23 35.6341 13.72 35.9641 13.32C35.9841 13.29 36.0141 13.26 36.0341 13.23C36.6141 12.35 37.2641 11.47 37.8941 10.61C39.1941 8.84 40.5441 7.01 41.4641 4.93C41.4641 4.91 41.4841 4.89 41.4841 4.87C41.9241 3.67 41.9041 2.7 41.4041 1.99C41.0941 1.54 40.4441 1 39.1441 1Z" fill="black"/>
<path d="M9.27411 43.29C8.00411 43.29 7.10411 42.85 6.74411 42.06C6.24411 40.95 6.85412 39.39 8.57412 37.42C11.7941 33.58 13.5741 29.05 13.5741 24.68C13.7841 22.2 15.1341 20.04 16.4441 17.95C16.8641 17.28 17.2841 16.61 17.6641 15.94C17.9941 15.47 17.9041 14.49 17.8541 13.97C17.8141 13.51 17.7941 13.3 17.9741 13.11C18.0641 13.01 18.2141 12.94 18.3541 12.94C18.6341 12.94 19.2908 14.06 20.3241 16.3L20.6141 16.94C21.1841 18.17 21.6141 19.97 22.0441 21.7C22.2141 22.41 22.3841 23.1 22.5541 23.71C22.7041 23.15 22.8541 22.52 23.0041 21.87C23.4341 20.04 23.8841 18.15 24.5041 16.92C27.7941 10.48 28.3041 10.48 28.7641 10.48C28.9541 10.48 29.1241 10.56 29.2541 10.71C29.6241 11.14 29.5241 12.01 29.1541 14.41C28.9541 15.71 28.6141 17.89 28.8541 18.31C29.0841 18.73 29.3241 19.14 29.5641 19.55C29.9941 20.28 30.4441 21.04 30.8141 21.82C31.4141 23.03 31.4941 24.27 31.5841 25.59C31.6141 26.07 31.6441 26.58 31.7041 27.12C32.1341 30.46 33.6241 33.77 36.1541 36.96C36.8441 37.73 39.1241 40.45 38.3641 42.16C38.0241 42.92 37.2141 43.3 35.9441 43.3C35.5441 43.3 35.0941 43.26 34.6041 43.19L34.3841 43.15C27.2041 41.33 26.5941 36.73 25.8841 31.4C25.8141 30.84 25.7341 30.26 25.6441 29.68C25.5941 29.85 25.5441 30.02 25.4941 30.19C25.1141 31.48 24.6841 32.94 23.8941 33.98C23.4341 34.49 22.9841 34.73 22.5341 34.73C21.1741 34.73 20.4341 32.73 19.7941 30.67C19.7941 30.67 19.5241 29.78 19.4441 29.5C19.4341 29.66 19.4241 29.82 19.4141 29.96C19.3841 30.4 19.3641 30.82 19.2841 31.18C18.8841 35.62 17.9241 40.05 13.6741 42.04C12.2041 42.82 10.6041 43.28 9.30411 43.28L9.27411 43.29Z" fill="#56A5CA"/>
<path d="M28.7541 10.98C29.5841 10.98 27.7541 17.4 28.4141 18.55C29.0541 19.71 29.7941 20.84 30.3541 22.03C31.1341 23.58 30.9741 25.16 31.1941 27.17C31.6641 30.88 33.4141 34.32 35.7541 37.26C37.6841 39.4 39.5841 42.79 35.9241 42.79C35.5541 42.79 35.1341 42.76 34.6541 42.68L34.4641 42.64C26.2241 40.56 27.0841 34.65 25.8541 27.98C25.8441 27.98 25.8241 27.97 25.8141 27.97C25.6941 27.97 25.5441 28.3 25.3641 28.85C24.8641 30.32 24.4541 32.38 23.4741 33.68C23.1241 34.07 22.8041 34.23 22.5141 34.23C21.4741 34.23 20.7541 32.15 20.2441 30.52C19.8441 29.19 19.5041 27.96 19.2841 27.96C19.2841 27.96 19.2741 27.96 19.2641 27.96C18.8141 28.62 18.9441 30.18 18.7641 31.08C18.3841 35.25 17.5241 39.67 13.4341 41.59C11.9741 42.37 10.4541 42.78 9.2741 42.78C6.9641 42.78 5.92409 41.21 8.95409 37.74C12.0441 34.05 14.0741 29.5 14.0741 24.67C14.3341 21.59 16.5541 18.92 18.0941 16.17C18.6941 15.32 18.1941 13.42 18.3441 13.42C18.4441 13.42 18.8541 14.33 20.1541 17.13C21.1441 19.28 21.7641 23.4 22.5441 25.34C23.3041 23.51 23.8841 19.19 24.9341 17.13C27.2741 12.54 28.3341 10.96 28.7441 10.96M28.7541 9.97998C27.9341 9.97998 27.3141 10.29 24.0541 16.7C23.4141 17.95 22.9641 19.82 22.5441 21.64C22.5441 21.62 22.5441 21.6 22.5341 21.59C22.1041 19.83 21.6641 18.01 21.0741 16.74L20.7841 16.1C19.6574 13.6666 18.8508 12.45 18.3641 12.45C18.0841 12.45 17.8041 12.57 17.6141 12.78C17.2841 13.14 17.3241 13.53 17.3641 14.03C17.3941 14.36 17.4841 15.35 17.2941 15.62C17.2741 15.65 17.2541 15.68 17.2441 15.71C16.8741 16.37 16.4741 17.02 16.0441 17.7C14.7041 19.84 13.3141 22.06 13.1041 24.62C13.1041 24.65 13.1041 24.68 13.1041 24.7C13.1041 28.95 11.3641 33.36 8.21409 37.12C6.36409 39.23 5.7241 40.97 6.3141 42.28C6.5741 42.85 7.30409 43.8 9.29409 43.8C10.6641 43.8 12.3441 43.33 13.8941 42.5C18.0941 40.52 19.2241 36.36 19.6941 32.01C20.3241 33.77 21.1241 35.23 22.5241 35.23C23.1241 35.23 23.7041 34.93 24.2241 34.35C24.2441 34.33 24.2641 34.3 24.2841 34.28C24.7841 33.61 25.1541 32.8 25.4441 31.97C26.1341 37.06 26.9841 41.78 34.2241 43.62C34.2441 43.62 34.2541 43.62 34.2741 43.63L34.4641 43.67C35.0241 43.76 35.5041 43.79 35.9241 43.79C37.7741 43.79 38.5141 43.01 38.8041 42.35C39.6541 40.43 37.5041 37.72 36.5141 36.61C34.0941 33.55 32.5941 30.24 32.1841 27.04C32.1241 26.53 32.0941 26.03 32.0641 25.55C31.9741 24.18 31.8941 22.89 31.2441 21.58C30.8741 20.8 30.4241 20.03 29.9841 19.29C29.7541 18.89 29.5141 18.49 29.2941 18.09C29.1541 17.6 29.4541 15.65 29.6341 14.48C30.0141 12.02 30.1441 11 29.6241 10.38C29.4041 10.12 29.0841 9.97998 28.7541 9.97998Z" fill="black"/>
<path d="M11.2332 16.5902C9.54321 11.8702 4.92321 8.52016 3.45321 3.78016C3.16321 1.50016 5.99321 0.990164 8.38321 1.80016C10.2632 2.44016 15.2932 6.24016 17.2032 9.40016" fill="#56A5CA"/>
<path d="M11.2332 16.5902C9.54321 11.8702 4.92321 8.52016 3.45321 3.78016C3.16321 1.50016 5.99321 0.990164 8.38321 1.80016C10.2632 2.44016 15.2932 6.24016 17.2032 9.40016" stroke="black" stroke-linecap="round" stroke-linejoin="round"/>
<path d="M42.3343 37.2698C41.5443 37.2698 40.6243 36.8998 39.5743 36.1798L39.4143 36.0698C34.7643 32.1598 31.8243 26.4198 28.9743 20.8598C28.0643 19.0798 27.2043 17.3998 26.2943 15.7798L26.0443 15.3398C25.3043 14.0398 24.4643 12.5598 23.5743 11.5198C23.4343 11.3698 23.1943 11.1698 22.9843 11.1698C22.0943 11.5698 21.4843 12.6598 20.8943 13.7198C20.6343 14.1798 20.3943 14.6198 20.1243 15.0098C19.3943 16.3398 18.6243 17.8298 17.8443 19.3398C16.7943 21.3598 15.7143 23.4598 14.6243 25.3398C14.3643 25.7798 14.1043 26.2198 13.8543 26.6598C11.9443 29.9298 9.96434 33.3098 7.01434 35.7198C6.19434 36.4598 4.80434 37.2098 3.61434 37.2098C3.00434 37.2098 2.49434 37.0098 2.13434 36.6398C1.69434 36.1798 1.48434 35.4898 1.52434 34.5798C1.95434 30.9298 3.88434 27.8598 5.75434 24.8898C6.01434 24.4698 6.27434 24.0598 6.53434 23.6398C8.90434 19.9698 11.6343 16.4498 14.2843 13.0498C16.1943 10.5898 18.1643 8.05984 19.9743 5.49984C20.9243 4.22984 21.9243 3.58984 22.9743 3.58984C24.1743 3.58984 25.3343 4.44984 26.3243 6.07984C27.1643 7.26984 28.1243 8.42984 29.0443 9.55984C30.0243 10.7598 31.0343 11.9998 31.9243 13.2798C32.7943 14.4698 33.6943 15.6398 34.5943 16.8198C38.1443 21.4698 41.8143 26.2798 43.9843 32.0798C44.6543 33.7798 44.6743 35.4398 44.0243 36.3898C43.6443 36.9498 43.0643 37.2498 42.3443 37.2498L42.3343 37.2698Z" fill="#83F1FE"/>
<path d="M22.954 4.10986C24.004 4.10986 25.004 4.92986 25.884 6.35986C27.684 8.88986 29.784 11.1299 31.494 13.5899C35.924 19.6099 40.824 25.1099 43.494 32.2799C44.414 34.5899 44.054 36.7699 42.334 36.7699C41.694 36.7699 40.874 36.4699 39.864 35.7699L39.704 35.6599C33.714 30.6199 30.514 22.2399 26.734 15.5399C25.924 14.1199 24.984 12.3999 23.964 11.1999C23.644 10.8599 23.314 10.6799 22.994 10.6799C22.924 10.6799 22.854 10.6799 22.784 10.7099C21.344 11.3899 20.614 13.4399 19.714 14.7399C17.934 17.9699 16.074 21.8299 14.184 25.1099C12.044 28.7199 9.96401 32.6799 6.68401 35.3599C5.85401 36.0999 4.60401 36.7399 3.60401 36.7399C2.66401 36.7399 1.95401 36.1799 2.01401 34.6199C2.48401 30.6099 4.95401 27.1699 6.94401 23.9299C11.004 17.6399 16.054 11.9199 20.354 5.80986C21.224 4.63986 22.104 4.10986 22.944 4.10986M22.954 3.10986C21.734 3.10986 20.594 3.81986 19.554 5.20986C17.744 7.77986 15.774 10.3099 13.864 12.7599C11.214 16.1699 8.47401 19.6999 6.09401 23.3799C5.83401 23.8099 5.57401 24.2199 5.30401 24.6399C3.49401 27.5199 1.44401 30.7699 1.00401 34.4999C1.00401 34.5299 1.00401 34.5499 1.00401 34.5799C0.964009 35.6299 1.22401 36.4499 1.75401 37.0099C2.21401 37.4899 2.84401 37.7399 3.59401 37.7399C5.00401 37.7399 6.49401 36.8599 7.34401 36.0999C10.334 33.6599 12.334 30.2399 14.264 26.9299C14.524 26.4899 14.774 26.0499 15.034 25.6199C16.134 23.7099 17.224 21.6099 18.274 19.5799C19.064 18.0599 19.804 16.6199 20.554 15.2699C20.824 14.8699 21.074 14.4199 21.324 13.9899C21.834 13.0799 22.364 12.1399 23.014 11.7199C23.054 11.7499 23.124 11.7999 23.204 11.8799C24.054 12.8799 24.874 14.3199 25.594 15.5899L25.844 16.0299C26.744 17.6299 27.604 19.3099 28.514 21.0799C31.384 26.6799 34.344 32.4699 39.044 36.4199C39.064 36.4399 39.084 36.4499 39.104 36.4699L39.264 36.5799C40.404 37.3699 41.424 37.7699 42.314 37.7699C43.204 37.7699 43.934 37.3899 44.404 36.6899C45.154 35.5899 45.154 33.7999 44.404 31.9099C42.214 26.0499 38.524 21.2199 34.944 16.5399C34.064 15.3899 33.154 14.1899 32.274 12.9999C31.384 11.7199 30.374 10.4699 29.384 9.26986C28.474 8.15986 27.534 6.99986 26.694 5.80986C25.324 3.57986 23.894 3.10986 22.934 3.10986H22.954Z" fill="black"/>
</svg>
