<svg width="43" height="42" viewBox="0 0 43 42" fill="none" xmlns="http://www.w3.org/2000/svg">
<path d="M31.0543 15.1098C30.5943 15.1098 30.2243 14.7098 29.9543 14.4198L29.8643 14.3198C29.4143 13.7198 28.8943 13.1598 28.3943 12.6198C27.4843 11.6498 26.5443 10.6498 26.0543 9.43977L26.0243 9.21977C25.9943 8.64977 26.3443 8.10977 26.6543 7.69977C28.9243 4.59977 31.9543 2.11977 34.9643 0.889766C35.8743 0.499766 36.8743 0.259766 37.6443 0.259766C38.4143 0.259766 38.9843 0.479766 39.2843 0.929766C39.6343 1.42977 39.6243 2.16977 39.2743 3.11977C38.3843 5.13977 37.0643 6.92977 35.7843 8.66977C35.1543 9.52977 34.4943 10.4198 33.9043 11.3198C33.5043 11.7998 33.1943 12.3698 32.8943 12.9298C32.4743 13.6998 32.0343 14.4998 31.4043 15.0198C31.2443 15.0898 31.1543 15.1098 31.0643 15.1098H31.0543Z" fill="#56A5CA"/>
<path d="M37.6346 0.51C38.8646 0.51 39.7446 1.12 39.0346 3.03C37.7246 6 35.4646 8.47 33.6846 11.18C32.7646 12.28 32.2746 13.97 31.2346 14.82C31.1746 14.84 31.1146 14.85 31.0546 14.85C30.6646 14.85 30.3046 14.42 30.0446 14.14C28.8546 12.53 27.0346 11.17 26.2746 9.34V9.2C26.2446 8.74 26.5446 8.25 26.8446 7.85C28.8946 5.05 31.8546 2.42 35.0446 1.12C35.8246 0.78 36.8146 0.51 37.6346 0.51ZM37.6346 0.01C36.8246 0.01 35.8046 0.25 34.8446 0.66C31.8046 1.9 28.7346 4.41 26.4346 7.55C26.1046 7.99 25.7246 8.58 25.7546 9.22V9.38C25.7746 9.43 25.7846 9.48 25.8046 9.53C26.3246 10.78 27.2746 11.8 28.1946 12.79C28.7146 13.35 29.2146 13.88 29.6246 14.44C29.6346 14.46 29.6546 14.47 29.6646 14.49L29.7546 14.58C30.0546 14.91 30.4746 15.35 31.0346 15.35C31.1546 15.35 31.2746 15.33 31.3846 15.29C31.4346 15.27 31.4846 15.24 31.5346 15.21C32.2046 14.66 32.6546 13.84 33.0846 13.04C33.3846 12.5 33.6846 11.93 34.0546 11.5C34.0646 11.49 34.0746 11.47 34.0846 11.45C34.6746 10.56 35.3246 9.67 35.9546 8.81C37.2446 7.06 38.5746 5.26 39.4746 3.23C39.8746 2.16 39.8646 1.35 39.4746 0.78C39.2246 0.43 38.7046 0 37.6246 0L37.6346 0.01Z" fill="black"/>
<path d="M7.76472 41.56C6.59472 41.56 5.78472 41.18 5.46472 40.48C5.14472 39.78 5.20472 38.46 7.25472 36.11C10.5147 32.22 12.3147 27.63 12.3147 23.21C12.5147 20.81 13.8547 18.68 15.1447 16.61C15.5647 15.94 15.9847 15.26 16.3647 14.59C16.7347 14.07 16.6347 13.03 16.5847 12.47C16.5447 12.05 16.5347 11.91 16.6347 11.8C16.6847 11.75 16.7647 11.71 16.8347 11.71C17.0014 11.71 17.5814 12.7833 18.5747 14.93L18.8647 15.57C19.4247 16.78 19.8547 18.56 20.2747 20.28C20.5247 21.33 20.7747 22.34 21.0247 23.13C21.2547 22.39 21.4847 21.44 21.7147 20.45C22.1447 18.63 22.5847 16.76 23.1947 15.56C26.1647 9.74 26.8147 9.25 27.2347 9.25C27.3547 9.25 27.4547 9.3 27.5347 9.39C27.8247 9.73 27.7147 10.67 27.3747 12.89C27.1247 14.48 26.8247 16.45 27.1047 16.95C27.3347 17.37 27.5747 17.78 27.8247 18.2C28.2547 18.93 28.6947 19.68 29.0547 20.45C29.6347 21.62 29.7147 22.78 29.7947 24.13C29.8247 24.62 29.8547 25.13 29.9147 25.67C30.3447 29.06 31.8647 32.42 34.4147 35.63C35.8247 37.19 37.1447 39.32 36.5847 40.57C36.2947 41.23 35.5547 41.56 34.3947 41.56C34.0147 41.56 33.5747 41.52 33.0947 41.45L32.8847 41.41C25.8747 39.64 25.2747 35.11 24.5747 29.87C24.4547 28.98 24.3347 28.06 24.1747 27.12C24.1447 27.21 24.1047 27.32 24.0647 27.44C23.9447 27.81 23.8247 28.21 23.7047 28.62C23.3247 29.89 22.9047 31.33 22.1447 32.34C21.7547 32.78 21.3647 32.99 20.9847 32.99C19.7947 32.99 19.0647 30.99 18.4847 29.11L18.3747 28.75C18.1847 28.12 17.9647 27.38 17.8047 26.97C17.6847 27.38 17.6447 27.95 17.6147 28.47C17.5847 28.9 17.5647 29.31 17.4947 29.65C17.0947 34.04 16.1547 38.4 12.0247 40.34C10.5747 41.11 9.02472 41.55 7.76472 41.55V41.56Z" fill="#56A5CA"/>
<path d="M27.2351 9.48998C28.0651 9.48998 26.2351 15.91 26.8951 17.06C27.5351 18.22 28.2751 19.35 28.8351 20.54C29.6151 22.09 29.4551 23.67 29.6751 25.68C30.1451 29.39 31.8951 32.83 34.2351 35.77C36.1651 37.91 38.0651 41.3 34.4051 41.3C34.0351 41.3 33.6151 41.27 33.1351 41.19L32.9451 41.15C24.7051 39.07 25.5651 33.16 24.3351 26.49C24.3251 26.49 24.3051 26.48 24.2951 26.48C24.1751 26.48 24.0251 26.81 23.8451 27.36C23.3451 28.83 22.9351 30.89 21.9551 32.19C21.6051 32.58 21.2851 32.74 20.9951 32.74C19.9551 32.74 19.2351 30.66 18.7251 29.03C18.3251 27.7 17.9851 26.47 17.7651 26.47C17.7651 26.47 17.7551 26.47 17.7451 26.47C17.2951 27.13 17.4251 28.69 17.2451 29.59C16.8651 33.76 16.0051 38.18 11.9151 40.1C10.4551 40.88 8.93509 41.29 7.75509 41.29C5.44509 41.29 4.40509 39.72 7.43509 36.25C10.5251 32.56 12.5551 28.01 12.5551 23.18C12.8151 20.1 15.0351 17.43 16.5751 14.68C17.1751 13.83 16.6751 11.93 16.8251 11.93C16.9251 11.93 17.3351 12.84 18.6351 15.64C19.6251 17.79 20.2451 21.91 21.0251 23.85C21.7851 22.02 22.3651 17.7 23.4151 15.64C25.7551 11.05 26.8151 9.46998 27.2251 9.46998M27.2351 8.98998C26.7751 8.98998 26.2651 8.98998 22.9751 15.44C22.3451 16.67 21.9051 18.56 21.4751 20.39C21.3251 21.04 21.1751 21.67 21.0251 22.23C20.8551 21.62 20.6851 20.93 20.5151 20.22C20.0951 18.49 19.6551 16.69 19.0851 15.46L18.7951 14.82C17.7618 12.58 17.1051 11.46 16.8251 11.46C16.6851 11.46 16.5351 11.53 16.4451 11.63C16.2651 11.83 16.2851 12.04 16.3251 12.49C16.3751 13.02 16.4651 13.99 16.1651 14.42C16.1651 14.43 16.1451 14.45 16.1351 14.46C15.7651 15.13 15.3351 15.81 14.9151 16.47C13.6051 18.56 12.2551 20.72 12.0451 23.16C12.0451 27.57 10.2651 32.09 7.03509 35.95C5.32509 37.91 4.70509 39.47 5.21509 40.58C5.57509 41.37 6.47509 41.81 7.74509 41.81C9.01509 41.81 10.6451 41.35 12.1351 40.56C16.3551 38.59 17.3251 34.17 17.7351 29.68C17.8051 29.33 17.8251 28.92 17.8551 28.49C17.8551 28.34 17.8751 28.18 17.8851 28.02C17.9651 28.29 18.0551 28.57 18.1251 28.82L18.2351 29.18C18.8751 31.24 19.6151 33.24 20.9851 33.24C21.4451 33.24 21.8851 33 22.3151 32.52C23.1251 31.44 23.5551 29.98 23.9451 28.69C23.9951 28.52 24.0451 28.34 24.0951 28.18C24.1851 28.76 24.2551 29.33 24.3351 29.9C25.0451 35.23 25.6551 39.83 32.8151 41.64L33.0351 41.68C33.5551 41.76 34.0051 41.8 34.3951 41.8C35.6651 41.8 36.4851 41.42 36.8151 40.66C37.5751 38.95 35.3051 36.23 34.5851 35.44C32.0851 32.28 30.5851 28.97 30.1551 25.62C30.0951 25.09 30.0651 24.59 30.0351 24.1C29.9551 22.78 29.8751 21.54 29.2651 20.32C28.8951 19.55 28.4551 18.79 28.0251 18.06C27.7851 17.65 27.5451 17.24 27.3151 16.82C27.0751 16.39 27.4051 14.21 27.6051 12.91C27.9751 10.52 28.0751 9.63998 27.7051 9.20998C27.5751 9.05998 27.4051 8.97998 27.2151 8.97998L27.2351 8.98998Z" fill="black"/>
<path d="M10.7146 15.1099C9.02458 10.3899 4.40458 7.03993 2.93458 2.29993C2.65458 0.00992882 5.61458 0.819929 6.87458 1.31993C10.4046 2.68993 13.7846 5.75993 15.6946 8.91993" fill="#56A5CA"/>
<path d="M10.7146 15.1099C9.02458 10.3899 4.40458 7.03993 2.93458 2.29993C2.65458 0.00992882 5.61458 0.819929 6.87458 1.31993C10.4046 2.68993 13.7846 5.75993 15.6946 8.91993" stroke="black" stroke-width="0.5" stroke-linecap="round" stroke-linejoin="round"/>
<path d="M40.8252 35.5399C40.0952 35.5399 39.2152 35.1899 38.2152 34.4899L38.0552 34.3799C33.4552 30.5199 30.5352 24.7999 27.6952 19.2599C26.7852 17.4799 25.9252 15.7899 25.0052 14.1799L24.7552 13.7399C24.0052 12.4199 23.1652 10.9299 22.2552 9.87988C21.9852 9.58988 21.7152 9.44988 21.4752 9.44988C21.4252 9.44988 21.3752 9.44988 21.3252 9.46988C20.4152 9.90988 19.7752 11.0399 19.1652 12.1299C18.9052 12.5899 18.6652 13.0199 18.4052 13.3999C17.6652 14.7499 16.8852 16.2399 16.1052 17.7499C15.0552 19.7699 13.9752 21.8599 12.8852 23.7499C12.6252 24.1899 12.3652 24.6299 12.1152 25.0699C10.2152 28.3199 8.25517 31.6899 5.33517 34.0699C4.53517 34.7799 3.22517 35.5099 2.09517 35.5099C1.55517 35.5099 1.11517 35.3399 0.795167 35.0099C0.405167 34.5999 0.225167 33.9699 0.255167 33.1299C0.675167 29.5499 2.59517 26.5099 4.44517 23.5599C4.70517 23.1399 4.96517 22.7299 5.22517 22.3099C7.58517 18.6499 10.3152 15.1399 12.9552 11.7399C14.8652 9.27988 16.8352 6.73988 18.6452 4.17988C19.5352 2.97988 20.4752 2.37988 21.4452 2.37988C22.5552 2.37988 23.6452 3.19988 24.5852 4.74988C25.4452 5.95988 26.3952 7.12988 27.3252 8.25988C28.3052 9.45988 29.3052 10.6899 30.1952 11.9699C31.0752 13.1599 31.9752 14.3399 32.8652 15.5099C36.4052 20.1399 40.0652 24.9399 42.2252 30.7099C42.8752 32.3399 42.8952 33.9099 42.2952 34.7899C41.9652 35.2799 41.4552 35.5399 40.8252 35.5399Z" fill="#83F1FE"/>
<path d="M21.4448 2.62012C22.4948 2.62012 23.4948 3.44012 24.3748 4.87012C26.1748 7.40012 28.2748 9.64012 29.9848 12.1001C34.4148 18.1201 39.3148 23.6201 41.9848 30.7901C42.9048 33.1001 42.5448 35.2801 40.8248 35.2801C40.1848 35.2801 39.3648 34.9801 38.3548 34.2801L38.1948 34.1701C32.2048 29.1301 29.0048 20.7501 25.2248 14.0501C24.4148 12.6301 23.4748 10.9101 22.4548 9.71012C22.1348 9.37012 21.8048 9.19012 21.4848 9.19012C21.4148 9.19012 21.3448 9.19012 21.2748 9.22012C19.8348 9.90012 19.1048 11.9501 18.2048 13.2501C16.4248 16.4801 14.5648 20.3401 12.6748 23.6201C10.5348 27.2301 8.45481 31.1901 5.17481 33.8701C4.34481 34.6101 3.09481 35.2501 2.09481 35.2501C1.15481 35.2501 0.44481 34.6901 0.50481 33.1301C0.97481 29.1201 3.44481 25.6801 5.43481 22.4401C9.49481 16.1501 14.5448 10.4301 18.8448 4.32012C19.7148 3.15012 20.5948 2.62012 21.4348 2.62012M21.4448 2.12012C20.3948 2.12012 19.3848 2.76012 18.4448 4.02012C16.6348 6.59012 14.6648 9.13012 12.7548 11.5801C10.1148 14.9801 7.37481 18.5001 5.01481 22.1601C4.75481 22.5801 4.49481 23.0001 4.23481 23.4101C2.36481 26.3901 0.43481 29.4601 0.00481029 33.0701C-0.0351897 34.0201 0.17481 34.7101 0.61481 35.1701C0.97481 35.5501 1.48481 35.7401 2.09481 35.7401C3.28481 35.7401 4.66481 34.9801 5.50481 34.2301C8.43481 31.8301 10.4148 28.4501 12.3248 25.1801C12.5848 24.7401 12.8348 24.3001 13.0948 23.8701C14.1848 21.9701 15.2748 19.8801 16.3248 17.8601C17.1148 16.3301 17.8748 14.8801 18.6248 13.5201C18.8848 13.1301 19.1248 12.7101 19.3848 12.2501C19.9648 11.2101 20.5748 10.1301 21.4348 9.70012C21.4548 9.70012 21.4648 9.70012 21.4848 9.70012C21.6948 9.70012 21.9348 9.90012 22.0948 10.0701C22.9648 11.0801 23.8048 12.5601 24.5448 13.8701L24.7948 14.3101C25.7048 15.9201 26.5648 17.6001 27.4748 19.3801C30.3148 24.9401 33.2648 30.6801 37.8748 34.5601L38.0648 34.7001C39.1148 35.4301 40.0448 35.8001 40.8248 35.8001C41.5348 35.8001 42.1148 35.5001 42.5048 34.9401C43.1548 33.9901 43.1348 32.3301 42.4548 30.6201C40.2848 24.8201 36.6148 20.0201 33.0648 15.3701C32.1848 14.2101 31.2648 13.0201 30.3948 11.8201C29.5148 10.5501 28.4948 9.31012 27.5248 8.11012C26.6048 6.98012 25.6548 5.81012 24.7948 4.60012C23.8248 3.00012 22.6648 2.14012 21.4648 2.14012L21.4448 2.12012Z" fill="black"/>
</svg>
