<svg width="45" height="44" viewBox="0 0 45 44" fill="none" xmlns="http://www.w3.org/2000/svg">
<path d="M32.0439 16.61C31.3639 16.61 30.8939 16.1 30.5739 15.76L30.4839 15.67C30.0139 15.05 29.5239 14.52 29.0039 13.97C28.0639 12.97 27.0939 11.93 26.5639 10.64C26.5339 10.57 26.5139 10.49 26.5139 10.42V10.28C26.4639 9.53002 26.8739 8.89002 27.2339 8.41002C29.5539 5.24002 32.6639 2.70002 35.7539 1.44002C36.7239 1.02002 37.7839 0.77002 38.6239 0.77002C39.8139 0.77002 40.3939 1.25002 40.6739 1.65002C41.1239 2.29002 41.1339 3.18002 40.7239 4.30002C39.8039 6.40002 38.4639 8.22002 37.1639 9.97002C36.5339 10.83 35.8839 11.71 35.2939 12.6C34.8939 13.08 34.6039 13.61 34.3039 14.17C33.8639 14.98 33.4039 15.83 32.6939 16.41C32.6239 16.46 32.5539 16.51 32.4639 16.54C32.3239 16.59 32.1739 16.62 32.0339 16.62L32.0439 16.61Z" fill="#56A5CA"/>
<path d="M38.6235 1.51C39.8535 1.51 40.7335 2.12 40.0235 4.03C38.7135 7 36.4535 9.47 34.6735 12.18C33.7535 13.28 33.2635 14.97 32.2235 15.82C32.1635 15.84 32.1035 15.85 32.0435 15.85C31.6535 15.85 31.2935 15.42 31.0335 15.14C29.8435 13.53 28.0235 12.17 27.2635 10.34V10.2C27.2335 9.74 27.5335 9.25 27.8335 8.85C29.8835 6.05 32.8435 3.42 36.0335 2.12C36.8135 1.78 37.8035 1.51 38.6235 1.51ZM38.6235 0.01C37.2835 0.01 35.9435 0.52 35.4335 0.74C32.2435 2.04 29.0235 4.68 26.6135 7.96C26.2235 8.48 25.6935 9.3 25.7435 10.27C25.7435 10.29 25.7435 10.31 25.7435 10.33V10.47C25.7735 10.62 25.8035 10.77 25.8635 10.91C26.4535 12.33 27.4635 13.42 28.4535 14.47C28.9535 15.01 29.4335 15.52 29.8135 16.03C29.8535 16.08 29.8935 16.13 29.9335 16.17L30.0135 16.25C30.3635 16.63 31.0235 17.34 32.0335 17.34C32.2635 17.34 32.4935 17.3 32.7235 17.22C32.8835 17.16 33.0335 17.08 33.1735 16.97C33.9935 16.29 34.5135 15.35 34.9635 14.51C35.2535 13.98 35.5235 13.49 35.8235 13.13C35.8635 13.09 35.8935 13.04 35.9235 12.99C36.4935 12.12 37.1135 11.28 37.7635 10.4C39.0835 8.61 40.4535 6.76 41.3935 4.63C41.4035 4.6 41.4135 4.57 41.4235 4.54C41.9235 3.18 41.8835 2.05 41.2835 1.2C40.9035 0.65 40.1235 0 38.6135 0L38.6235 0.01Z" fill="black"/>
<path d="M8.7533 43.0602C7.3833 43.0602 6.4033 42.5702 5.9933 41.6802C5.4433 40.4702 6.0733 38.8202 7.8633 36.7802C11.0433 32.9902 12.8033 28.5202 12.8033 24.2102C13.0133 21.6502 14.3833 19.4602 15.7133 17.3402C16.1333 16.6702 16.5433 16.0102 16.9233 15.3402C17.2133 14.9202 17.1133 13.9402 17.0833 13.5102C17.0433 13.0402 17.0133 12.7302 17.2633 12.4502C17.4033 12.2902 17.6233 12.2002 17.8333 12.2002C18.2133 12.2002 18.9433 13.3702 20.0233 15.7102L20.3133 16.3502C20.8933 17.6002 21.3333 19.4102 21.7533 21.1602C21.8433 21.5202 21.9233 21.8802 22.0133 22.2202C22.0833 21.9302 22.1533 21.6302 22.2233 21.3302C22.6533 19.4902 23.1033 17.5802 23.7433 16.3202C26.8733 10.1802 27.5233 9.74023 28.2233 9.74023C28.4833 9.74023 28.7333 9.85023 28.9033 10.0502C29.3433 10.5602 29.2533 11.4202 28.8633 13.9502C28.6733 15.1902 28.3533 17.2502 28.5433 17.7002C28.7733 18.1102 29.0133 18.5202 29.2533 18.9302C29.6833 19.6702 30.1333 20.4302 30.5133 21.2202C31.1433 22.4702 31.2233 23.7402 31.3033 25.0802C31.3333 25.5602 31.3633 26.0602 31.4233 26.6002C31.8433 29.8902 33.3233 33.1602 35.8233 36.3102C36.7433 37.3302 38.8633 39.9702 38.0633 41.7702C37.6833 42.6202 36.7933 43.0602 35.4133 43.0602C35.0033 43.0602 34.5433 43.0202 34.0333 42.9502L33.8033 42.9102C26.4433 41.0502 25.7933 36.1402 25.0933 30.9502C25.0633 30.7602 25.0433 30.5702 25.0133 30.3702C24.6633 31.5202 24.2433 32.7402 23.5533 33.6602C23.0333 34.2402 22.5233 34.5102 21.9933 34.5102C20.4833 34.5102 19.7033 32.4902 19.0433 30.3902C19.0233 30.5202 19.0033 30.6502 18.9833 30.7702C18.5833 35.2602 17.5933 39.7702 13.2333 41.8102C11.7433 42.6002 10.0933 43.0702 8.7533 43.0702V43.0602Z" fill="#56A5CA"/>
<path d="M28.2235 10.4902C29.0535 10.4902 27.2235 16.9102 27.8835 18.0602C28.5235 19.2202 29.2635 20.3502 29.8235 21.5402C30.6035 23.0902 30.4435 24.6702 30.6635 26.6802C31.1335 30.3902 32.8835 33.8302 35.2235 36.7702C37.1535 38.9102 39.0535 42.3002 35.3935 42.3002C35.0235 42.3002 34.6035 42.2702 34.1235 42.1902L33.9335 42.1502C25.6935 40.0702 26.5535 34.1602 25.3235 27.4902C25.3135 27.4902 25.2935 27.4802 25.2835 27.4802C25.1635 27.4802 25.0135 27.8102 24.8335 28.3602C24.3335 29.8302 23.9235 31.8902 22.9435 33.1902C22.5935 33.5802 22.2735 33.7402 21.9835 33.7402C20.9435 33.7402 20.2235 31.6602 19.7135 30.0302C19.3135 28.7002 18.9735 27.4702 18.7535 27.4702C18.7535 27.4702 18.7435 27.4702 18.7335 27.4702C18.2835 28.1302 18.4135 29.6902 18.2335 30.5902C17.8535 34.7602 16.9935 39.1802 12.9035 41.1002C11.4435 41.8802 9.92347 42.2902 8.74347 42.2902C6.43347 42.2902 5.39347 40.7202 8.42347 37.2502C11.5135 33.5602 13.5435 29.0102 13.5435 24.1802C13.8035 21.1002 16.0235 18.4302 17.5635 15.6802C18.1635 14.8302 17.6635 12.9302 17.8135 12.9302C17.9135 12.9302 18.3235 13.8402 19.6235 16.6402C20.6135 18.7902 21.2335 22.9102 22.0135 24.8502C22.7735 23.0202 23.3535 18.7002 24.4035 16.6402C26.7435 12.0502 27.8035 10.4702 28.2135 10.4702M28.2235 8.99023C27.0735 8.99023 26.3335 9.59024 23.0735 15.9802C22.6435 16.8202 22.3035 17.9102 22.0035 19.0602C21.7035 17.9402 21.3835 16.8802 20.9935 16.0302L20.7035 15.3902C20.1635 14.2302 19.8035 13.4502 19.5735 12.9602C19.2235 12.2502 18.8335 11.4402 17.8335 11.4402C17.4135 11.4402 16.9935 11.6202 16.7135 11.9402C16.2335 12.4602 16.2935 13.0502 16.3435 13.5702C16.3635 13.8302 16.4435 14.6002 16.3435 14.8602C16.3235 14.8902 16.3035 14.9302 16.2835 14.9602C15.9235 15.6102 15.5235 16.2502 15.0935 16.9302C13.7235 19.1202 12.3035 21.3902 12.0835 24.0702C12.0835 24.1102 12.0835 24.1502 12.0835 24.1902C12.0835 28.3202 10.3835 32.6202 7.31347 36.2902C5.33347 38.5502 4.66347 40.4702 5.34347 41.9702C5.65347 42.6502 6.50347 43.7902 8.78347 43.7902C10.2335 43.7902 11.9835 43.3002 13.6135 42.4402C17.4135 40.6502 18.8235 37.0602 19.4435 33.3502C20.0335 34.4102 20.8335 35.2302 22.0235 35.2302C22.7735 35.2302 23.4735 34.8802 24.1035 34.1802C24.1335 34.1502 24.1635 34.1102 24.1935 34.0802C24.3835 33.8302 24.5535 33.5502 24.7135 33.2702C25.4435 37.7102 26.9235 41.9102 33.6135 43.6002C33.6435 43.6002 33.6635 43.6102 33.6935 43.6202L33.8835 43.6602C33.8835 43.6602 33.9335 43.6602 33.9535 43.6702C34.4935 43.7502 34.9935 43.7902 35.4435 43.7902C37.5635 43.7902 38.4335 42.8502 38.7835 42.0602C39.7235 39.9602 37.7235 37.2502 36.4235 35.8002C34.0635 32.8202 32.6035 29.6002 32.2135 26.4902C32.1635 26.0002 32.1335 25.5102 32.1035 25.0302C32.0135 23.6102 31.9335 22.2702 31.2235 20.8702C30.8435 20.0802 30.3935 19.3002 29.9535 18.5502C29.7335 18.1802 29.5135 17.8002 29.3035 17.4302C29.2235 16.8702 29.4935 15.1302 29.6635 14.0702C30.0735 11.4502 30.2035 10.3502 29.5335 9.57024C29.2235 9.20024 28.7635 8.99023 28.2835 8.99023H28.2235Z" fill="black"/>
<path d="M11.7139 16.1098C10.0239 11.3898 5.40393 8.03976 3.93393 3.29976C3.64393 1.01976 6.60393 1.82976 7.86393 2.31976C11.3939 3.68976 14.7739 6.75976 16.6839 9.91976" fill="#56A5CA"/>
<path d="M11.7139 16.1098C10.0239 11.3898 5.40393 8.03976 3.93393 3.29976C3.64393 1.01976 6.60393 1.82976 7.86393 2.31976C11.3939 3.68976 14.7739 6.75976 16.6839 9.91976" stroke="black" stroke-width="1.5" stroke-linecap="round" stroke-linejoin="round"/>
<path d="M41.8139 37.0401C40.9739 37.0401 40.0039 36.6601 38.9139 35.9001L38.7539 35.7801C34.0539 31.8301 31.0939 26.0601 28.2439 20.4801C27.3339 18.7001 26.4739 17.0201 25.5639 15.4101L25.3139 14.9801C24.5739 13.6801 23.7439 12.2201 22.8739 11.2001C22.7139 11.0301 22.5639 10.9501 22.4939 10.9401C21.7239 11.3601 21.1539 12.3801 20.6039 13.3601C20.3539 13.8101 20.0939 14.2701 19.8139 14.6701C19.0939 15.9801 18.3239 17.4601 17.5439 18.9701C16.4939 21.0001 15.4039 23.0901 14.3139 24.9901C14.0539 25.4301 13.7939 25.8701 13.5339 26.3101C11.6139 29.6001 9.62394 33.0001 6.63394 35.4401C5.84394 36.1401 4.42394 36.9901 3.07394 36.9901C2.39394 36.9901 1.82394 36.7601 1.41394 36.3401C0.923941 35.8301 0.693941 35.0801 0.733941 34.1001C1.17394 30.3701 3.20394 27.1401 5.00394 24.2801C5.26394 23.8601 5.52394 23.4501 5.77394 23.0401C8.15394 19.3501 10.8939 15.8301 13.5439 12.4201C15.4439 9.97012 17.4239 7.43012 19.2139 4.88012C20.2139 3.54012 21.2939 2.87012 22.4239 2.87012C23.3239 2.87012 24.6739 3.32012 25.9939 5.48012C26.8239 6.64012 27.7739 7.81012 28.6939 8.93012C29.6739 10.1401 30.6939 11.3801 31.5839 12.6701C32.4539 13.8501 33.3539 15.0201 34.2439 16.2001C37.8039 20.8601 41.4939 25.6901 43.6739 31.5301C44.3839 33.3301 44.3939 35.0301 43.6939 36.0701C43.2639 36.7001 42.6039 37.0401 41.8139 37.0401Z" fill="#83F1FE"/>
<path d="M22.4335 3.6201C23.4835 3.6201 24.4835 4.4401 25.3635 5.8701C27.1635 8.4001 29.2635 10.6401 30.9735 13.1001C35.4035 19.1201 40.3035 24.6201 42.9735 31.7901C43.8935 34.1001 43.5335 36.2801 41.8135 36.2801C41.1735 36.2801 40.3535 35.9801 39.3435 35.2801L39.1835 35.1701C33.1935 30.1301 29.9935 21.7501 26.2135 15.0501C25.4035 13.6301 24.4635 11.9101 23.4435 10.7101C23.1235 10.3701 22.7935 10.1901 22.4735 10.1901C22.4035 10.1901 22.3335 10.1901 22.2635 10.2201C20.8235 10.9001 20.0935 12.9501 19.1935 14.2501C17.4135 17.4801 15.5535 21.3401 13.6635 24.6201C11.5235 28.2301 9.44353 32.1901 6.16353 34.8701C5.33353 35.6101 4.08353 36.2501 3.08353 36.2501C2.14353 36.2501 1.43353 35.6901 1.49353 34.1301C1.96353 30.1201 4.43353 26.6801 6.42353 23.4401C10.4835 17.1501 15.5335 11.4301 19.8335 5.3201C20.7035 4.1501 21.5835 3.6201 22.4235 3.6201M22.4335 2.1201C21.0535 2.1201 19.7735 2.8901 18.6335 4.4201C16.8235 6.9901 14.8535 9.5201 12.9535 11.9601C10.2935 15.3801 7.54353 18.9201 5.16353 22.6201C4.89353 23.0601 4.63353 23.4701 4.37353 23.8801C2.54353 26.8101 0.463531 30.1201 0.00353145 33.9501C0.00353145 33.9901 0.00353145 34.0301 0.00353145 34.0701C-0.0364685 35.2601 0.263531 36.2001 0.893531 36.8601C1.44353 37.4401 2.21353 37.7401 3.09353 37.7401C4.63353 37.7401 6.23353 36.8101 7.14353 36.0001C10.2235 33.4801 12.2335 30.0201 14.1935 26.6801C14.4535 26.2401 14.7035 25.8001 14.9635 25.3701C16.0735 23.4401 17.1635 21.3401 18.2235 19.3101C19.0035 17.8001 19.7435 16.3701 20.4835 15.0301C20.7635 14.6201 21.0135 14.1701 21.2635 13.7301C21.6335 13.0601 22.0435 12.3301 22.4835 11.8901C23.2535 12.8401 24.0035 14.1701 24.6735 15.3401L24.9235 15.7801C25.8235 17.3701 26.6735 19.0401 27.5835 20.8101C30.4735 26.4501 33.4635 32.2901 38.2335 36.3001C38.2635 36.3301 38.2935 36.3501 38.3335 36.3701L38.4935 36.4801C39.7235 37.3301 40.8435 37.7601 41.8335 37.7601C42.8735 37.7601 43.7635 37.3001 44.3335 36.4601C45.1735 35.2201 45.1935 33.2601 44.3835 31.2101C42.1735 25.2901 38.4535 20.4301 34.8535 15.7201C33.9735 14.5701 33.0635 13.3801 32.1935 12.1901C31.3035 10.9101 30.2835 9.6501 29.2935 8.4401C28.3935 7.3401 27.4635 6.2001 26.6235 5.0201C25.1335 2.6001 23.5335 2.1001 22.4435 2.1001L22.4335 2.1201Z" fill="black"/>
</svg>
