<?xml version="1.0" encoding="UTF-8"?>
<svg id="Layer_2" data-name="Layer 2" xmlns="http://www.w3.org/2000/svg" viewBox="0 0 29.87 32.41">
  <g id="Layer_2-2" data-name="Layer 2">
    <path d="M27.91,28.12c1.7-.14,2.68,2.08,1.31,3.14-1.16.89-2.54.23-3-1.03-.99-.13-2.04-.1-3.02-.21-.69-.08-1.28,0-1.64-.65-.55-.99-1.04-2.71-1.66-3.56-.47-.66-1.62-.24-2.34-.36-.72,1.71-2.76,1.65-3.6.04-1.48.27-3.24-.11-4.69.07-.13.02-.22,0-.32.11-.25.3-.46,1.33-.74,1.71l-4.65,3.02c.12,3.16-4.53,2.29-3.38-.45.46-1.1,1.3-.76,1.71-1.12.1-.09,1-2.18,1.16-2.54,3.48-7.67,6.7-15.46,10.25-23.1-.49-.85-.77-1.81,0-2.62,1.56-1.66,4.19.71,2.59,2.47l8.23,17.64,3.79,7.45ZM14.03,2.39c.48.48,1.75-.12,1.18-1.01-.62-.95-1.95.23-1.18,1.01ZM17.16,17.19l2.37-3.84L14.93,3.61l-.63-.11-1.58,3.73,1.6,3.7c.8.26,1.4.35,1.77,1.19.56,1.28-.4,1.69-.33,2.17l1.4,2.91ZM14.12,24.48c-.03-.14.1-.32.05-.44-.03-.09-1.21-1.23-1.41-1.41-.23-.21-1.27-1.23-1.41-1.31-.51-.29-1.16.04-.88-.98l2.75-6.15c.02-.21-.3-.52-.39-.77-.45-1.2.56-1.72.5-2.12l-1.23-2.8-6.23,13.88,1.89,3.29.4-.8c.05-.08.33-.4.36-.4h5.6ZM14.3,12.11c-.84.17-.6,1.56.27,1.48,1.11-.1.81-1.7-.27-1.48ZM11.89,20.24h5.22c.27,0-.08-.68-.14-.83-.66-1.61-1.54-3.13-2.18-4.75h-.68s-2.33,5.36-2.33,5.36l.12.22ZM21.29,17.2l-1.25-2.61-1.58,2.61h2.83ZM21.83,18.17h-4.24c-.08.46,1.77,3.04.71,3.04h-5.38l1.97,2.16c1.15-.5,2.19-.02,2.67,1.1l2.86.05,2.08,4.39,3.83.33.45-.64-4.95-10.43ZM2.92,29.48l4.23-2.68-1.73-3.08c-.09-.06-.27.3-.31.39-.66,1.3-1.53,3.25-2.02,4.61-.09.25-.2.48-.16.76ZM15.23,24.4c-.77.76.61,1.8,1.17,1.01.51-.72-.5-1.68-1.17-1.01ZM28.65,29.4c-.71-.76-1.92.37-1.05,1.11.69.59,1.61-.52,1.05-1.11ZM2.35,30.16c-.64-.68-1.79.26-1.11,1.06s1.72-.41,1.11-1.06Z"/>
  </g>
</svg>