<?xml version="1.0" encoding="UTF-8"?>
<svg id="Layer_2" data-name="Layer 2" xmlns="http://www.w3.org/2000/svg" viewBox="0 0 64.95 59.59">
  <defs>
    <style>
      .cls-1 {
        fill: #3fa9f5;
      }

      .cls-2 {
        fill: #ace6ff;
      }
    </style>
  </defs>
  <g id="Layer_2-2" data-name="Layer 2">
    <path class="cls-1" d="M60.96,58.4c-.54-3.28-4.08-7.39-5.85-11.17-3.46-6.8-5.19-15.13-4.61-22.83.26-3.81,1.07-7.48,2.45-10.99,1.56-3.93,3.06-7.56,3.12-9.28.04-.44-.02-.96-.29-1.21-2.79-.86-8.14,7.94-10.08,10.39-13.85,19.44-11.89,19.35-25.7,0-1.14-1.68-10.12-14.72-10.37-9.18.31,3.58,4.73,11.81,5.18,16.82,1.1,6.85.36,14.23-1.9,20.78-1.42,4.45-4.06,8.73-6.26,12.26-1.28,2.19-1.95,3.86-1.87,4.77.72,2.69,5.3-1.91,6.9-4.57,2.3-3.45,4.78-8.22,6.34-13.87.82-2.86,1.43-6.29,2.09-9.03.64-2.23,1.14-5.06,3.49-4.01,2.05,1.03,5.28,5.77,8.33,6.41,5,1.75,10.32-10.83,12.82-5.13,1.13,2.43,1.78,8.18,3.4,13.26,1.27,4.1,3.19,8.15,5.47,11.71.77,1.21,1.55,2.29,2.34,3.18,2.73,2.97,5.06,3.79,5.02,1.76v-.07Z"/>
    <path class="cls-2" d="M64.93,45.2c-3.39-10.03-13.01-26.42-19.98-35.74C32.49-7.96,25.28,1.49,15.83,15.24c-5.8,8.66-11.31,19.27-14.09,25.26-.72,1.74-1.74,3.54-1.75,5.2,1.47,1.21,10.41-12.59,12.81-15.92C32.16-.69,37.21,7.68,54.75,33.7c.94,1.25,10.37,15.28,10.2,11.57v-.07Z"/>
  </g>
</svg>