<?xml version="1.0" encoding="UTF-8"?>
<svg id="Layer_2" data-name="Layer 2" xmlns="http://www.w3.org/2000/svg" viewBox="0 0 30.37 32.91">
  <defs>
    <style>
      .cls-1 {
        fill: #fff;
      }

      .cls-1, .cls-2 {
        stroke: #fff;
        stroke-linecap: round;
        stroke-linejoin: round;
        stroke-width: .5px;
      }
    </style>
  </defs>
  <g id="Layer_2-2" data-name="Layer 2">
    <g>
      <path class="cls-2" d="M28.16,28.37c1.7-.14,2.68,2.08,1.31,3.14-1.16.89-2.54.23-3-1.03-.99-.13-2.04-.1-3.02-.21-.69-.08-1.28,0-1.64-.65-.55-.99-1.04-2.71-1.66-3.56-.47-.66-1.62-.24-2.34-.36-.72,1.71-2.76,1.65-3.6.04-1.48.27-3.24-.11-4.69.07-.13.02-.22,0-.32.11-.25.3-.46,1.33-.74,1.71l-4.65,3.02c.12,3.16-4.53,2.29-3.38-.45.46-1.1,1.3-.76,1.71-1.12.1-.09,1-2.18,1.16-2.54,3.48-7.67,6.7-15.46,10.25-23.1-.49-.85-.77-1.81,0-2.62,1.56-1.66,4.19.71,2.59,2.47l8.23,17.64,3.79,7.45ZM14.28,2.64c.48.48,1.75-.12,1.18-1.01-.62-.95-1.95.23-1.18,1.01ZM17.41,17.44l2.37-3.84L15.18,3.86l-.63-.11-1.58,3.73,1.6,3.7c.8.26,1.4.35,1.77,1.19.56,1.28-.4,1.69-.33,2.17l1.4,2.91ZM14.37,24.73c-.03-.14.1-.32.05-.44-.03-.09-1.21-1.23-1.41-1.41-.23-.21-1.27-1.23-1.41-1.31-.51-.29-1.16.04-.88-.98l2.75-6.15c.02-.21-.3-.52-.39-.77-.45-1.2.56-1.72.5-2.12l-1.23-2.8-6.23,13.88,1.89,3.29.4-.8c.05-.08.33-.4.36-.4h5.6ZM14.55,12.36c-.84.17-.6,1.56.27,1.48,1.11-.1.81-1.7-.27-1.48ZM12.14,20.49h5.22c.27,0-.08-.68-.14-.83-.66-1.61-1.54-3.13-2.18-4.75h-.68s-2.33,5.36-2.33,5.36l.12.22ZM21.54,17.45l-1.25-2.61-1.58,2.61h2.83ZM22.08,18.42h-4.24c-.08.46,1.77,3.04.71,3.04h-5.38l1.97,2.16c1.15-.5,2.19-.02,2.67,1.1l2.86.05,2.08,4.39,3.83.33.45-.64-4.95-10.43ZM3.17,29.73l4.23-2.68-1.73-3.08c-.09-.06-.27.3-.31.39-.66,1.3-1.53,3.25-2.02,4.61-.09.25-.2.48-.16.76ZM15.48,24.65c-.77.76.61,1.8,1.17,1.01.51-.72-.5-1.68-1.17-1.01ZM28.9,29.65c-.71-.76-1.92.37-1.05,1.11.69.59,1.61-.52,1.05-1.11ZM2.6,30.41c-.64-.68-1.79.26-1.11,1.06s1.72-.41,1.11-1.06Z"/>
      <path class="cls-1" d="M22.08,18.42l4.95,10.43-.45.64-3.83-.33-2.08-4.39-2.86-.05c-.48-1.12-1.51-1.6-2.67-1.1l-1.97-2.16h5.38c1.06,0-.79-2.58-.71-3.04h4.24Z"/>
      <path class="cls-1" d="M14.37,24.73h-5.6s-.32.31-.36.4l-.4.8-1.89-3.29,6.23-13.88,1.23,2.8c.06.4-.95.93-.5,2.12.09.25.41.55.39.77l-2.75,6.15c-.28,1.01.37.69.88.98.14.08,1.18,1.09,1.41,1.31.19.18,1.37,1.32,1.41,1.41.05.12-.08.3-.05.44Z"/>
      <path class="cls-1" d="M17.41,17.44l-1.4-2.91c-.07-.48.89-.89.33-2.17-.37-.84-.97-.93-1.77-1.19l-1.6-3.7,1.58-3.73.63.11,4.59,9.75-2.37,3.84Z"/>
      <path class="cls-1" d="M12.14,20.49l-.12-.22,2.33-5.37h.68c.64,1.62,1.52,3.15,2.18,4.75.06.15.42.83.14.83h-5.22Z"/>
      <path class="cls-1" d="M3.17,29.73c-.03-.28.07-.51.16-.76.5-1.36,1.37-3.31,2.02-4.61.05-.09.22-.46.31-.39l1.73,3.08-4.23,2.68Z"/>
      <polygon class="cls-1" points="21.54 17.45 18.71 17.45 20.29 14.84 21.54 17.45"/>
      <path class="cls-1" d="M14.28,2.64c-.78-.78.56-1.97,1.18-1.01.58.89-.7,1.49-1.18,1.01Z"/>
      <path class="cls-1" d="M14.55,12.36c1.09-.22,1.38,1.38.27,1.48-.87.08-1.11-1.31-.27-1.48Z"/>
      <path class="cls-1" d="M15.48,24.65c.67-.66,1.68.29,1.17,1.01-.56.79-1.94-.25-1.17-1.01Z"/>
      <path class="cls-1" d="M28.9,29.65c.55.59-.37,1.7-1.05,1.11-.86-.74.34-1.87,1.05-1.11Z"/>
      <path class="cls-1" d="M2.6,30.41c.61.65-.44,1.83-1.11,1.06s.46-1.74,1.11-1.06Z"/>
    </g>
  </g>
</svg>